Description

Inspired by Victor Hugo's classic novel, Disney brings the heroic adventures of Quasimodo, the gentle and lonely bell ringer of Notre Dame, to spectacular life. This critically acclaimed Disney masterpiece is an "uplifting, thrilling story with a heart-touching message that emerges from the comedy and song" (Roger Ebert, Chicago Sun-Times). At the urging of his hilarious gargoyle pals Victor, Hugo, and Laverne, Quaismodo leaves the solitary safety of his tower, venturing out to find his first true friend, the gypsy beauty Esmerelda. The most unlikely of heroes, Quasi fights to save the people


Format : MPEG-4
Format profile : Base Media / Version 2
Codec ID : mp42
File size : 789 MiB
Duration : 1h 27mn
Overall bit rate : 1 266 Kbps
Encoded date : UTC 2009-08-04 10:56:13
Tagged date : UTC 2009-08-04 14:58:14
Writing application : HandBrake 0.9.3 2008112300

Video
ID : 1
Format : AVC
Format/Info : Advanced Video Codec
Format profile : Main@L4.0
Format settings, CABAC : Yes
Format settings, ReFrames : 3 frames
Codec ID : avc1
Codec ID/Info : Advanced Video Coding
Duration : 1h 27mn
Bit rate mode : Variable
Bit rate : 1 102 Kbps
Width : 718 pixels
Height : 550 pixels
Display aspect ratio : 1.856
Original display aspect ratio : 1.857
Frame rate mode : Variable
Frame rate : 25.000 fps
Minimum frame rate : 12.500 fps
Maximum frame rate : 57.143 fps
Resolution : 24 bits
Colorimetry : 4:2:0
Scan type : Progressive
Bits/(Pixel*Frame) : 0.112
Stream size : 687 MiB (87%)
Writing library : x264 core 65
Audio
ID : 2
Format : AAC
Format/Info : Advanced Audio Codec
Format version : Version 4
Format profile : LC
Format settings, SBR : No
Codec ID : 40
Duration : 1h 27mn
Bit rate mode : Variable
Bit rate : 160 Kbps
Maximum bit rate : 211 Kbps
Channel(s) : 2 channels
Channel positions : L R
Sampling rate : 48.0 KHz
Resolution : 16 bits
Stream size : 99.6 MiB (13%)
Language : English
Encoded date : UTC 2009-08-04 10:56:13
Tagged date : UTC 2009-08-04 14:58:09
